<?xml version="1.0"?>
<svg xmlns="http://www.w3.org/2000/svg" id="Solid" viewBox="0 0 512 512" width="512" height="512"><path d="M80,440a40.045,40.045,0,0,0,40,40H392a40.045,40.045,0,0,0,40-40V368H80Zm216-48a8,8,0,0,1,8-8h32a8,8,0,0,1,0,16H312v16h8a8,8,0,0,1,0,16h-8v16h24a8,8,0,0,1,0,16H304a8,8,0,0,1-8-8Zm-63.155,3.578a8,8,0,0,1,14.31-7.156L256,406.112l8.845-17.69a8,8,0,1,1,14.31,7.156L264.944,424l14.211,28.422a8,8,0,1,1-14.31,7.156L256,441.888l-8.845,17.69a8,8,0,0,1-14.31-7.156L247.056,424ZM168,392a8,8,0,0,1,8-8h32a8,8,0,0,1,0,16H184v16h8a8,8,0,0,1,0,16h-8v16h24a8,8,0,0,1,0,16H176a8,8,0,0,1-8-8Z"/><path d="M392,112h28.687L352,43.313V72A40.045,40.045,0,0,0,392,112Z"/><path d="M160,288H352V224H160Zm64-48h64a8,8,0,0,1,0,16H224a8,8,0,0,1,0-16Z"/><path d="M224,200a32,32,0,1,1,62.979,8H336V192H309.668A8,8,0,0,1,302,186.283a47.755,47.755,0,0,0-3.768-9.112,8,8,0,0,1,1.377-9.468l18.616-18.615-11.314-11.314L288.3,156.389a8,8,0,0,1-9.469,1.377A47.76,47.76,0,0,0,269.717,154,8,8,0,0,1,264,146.332V128H248v18.332A8,8,0,0,1,242.283,154a47.76,47.76,0,0,0-9.112,3.766,8,8,0,0,1-9.469-1.377l-18.614-18.615-11.314,11.314L212.39,167.7a8,8,0,0,1,1.377,9.468A47.755,47.755,0,0,0,210,186.283,8,8,0,0,1,202.332,192H176v16h49.021A32.041,32.041,0,0,1,224,200Z"/><path d="M336,72V32H120A40.045,40.045,0,0,0,80,72V352H432V128H392A56.063,56.063,0,0,1,336,72Zm32,224a8,8,0,0,1-8,8H152a8,8,0,0,1-8-8V216a8,8,0,0,1,8-8h8V184a8,8,0,0,1,8-8h28.664q.2-.5.407-.987L176.8,154.745a8,8,0,0,1,0-11.313L199.431,120.8a8,8,0,0,1,11.314,0l20.268,20.267c.327-.138.657-.274.987-.407V120a8,8,0,0,1,8-8h32a8,8,0,0,1,8,8v20.664c.33.133.66.269.987.407L301.255,120.8a8,8,0,0,1,11.314,0L335.2,143.432a8,8,0,0,1,0,11.313l-20.267,20.268q.207.49.407.987H344a8,8,0,0,1,8,8v24h8a8,8,0,0,1,8,8Z"/><path d="M240,200a15.973,15.973,0,0,0,2.155,8h27.69A16,16,0,1,0,240,200Z"/></svg>
