<?xml version="1.0" encoding="iso-8859-1"?>
<!-- Generator: Adobe Illustrator 19.0.0, SVG Export Plug-In . SVG Version: 6.00 Build 0)  -->
<svg version="1.1" id="Capa_1" xmlns="http://www.w3.org/2000/svg" xmlns:xlink="http://www.w3.org/1999/xlink" x="0px" y="0px"
	 viewBox="0 0 512 512" style="enable-background:new 0 0 512 512;" xml:space="preserve">
<path style="fill:#FF0340;" d="M256.005,0C256,0,196,256,196,256l60,256c141.39,0,256-114.615,256-256S397.39,0,256.005,0z"/>
<path style="fill:#FF1054;" d="M0,256c0,141.383,114.618,255.997,256,256V0C114.618,0.003,0,114.617,0,256z"/>
<g>
	<polygon style="fill:#EFF6F9;" points="368.207,261.94 351.107,224.411 333.559,224.411 333.559,287.499 347.868,287.499 
		347.868,246.55 362.987,281.199 373.427,281.199 388.546,246.55 388.637,287.499 402.766,287.499 402.766,224.411 385.307,224.411 
			"/>
	<polygon style="fill:#EFF6F9;" points="431.785,274.899 431.785,262.209 461.844,262.209 461.844,249.61 431.785,249.61 
		431.785,237.1 465.084,237.1 465.084,224.501 415.766,224.501 415.766,287.499 466.073,287.499 466.073,274.899 	"/>
	<rect x="304.54" y="224.5" style="fill:#EFF6F9;" width="16.02" height="62.997"/>
	<polygon style="fill:#EFF6F9;" points="256,224.501 248.86,230.981 256,237.461 260.53,237.461 260.53,287.589 276.55,287.589 
		276.55,237.461 295.539,237.461 295.539,224.501 	"/>
</g>
<g>
	<polygon style="fill:#FFFFFF;" points="126.694,287.499 142.714,287.499 142.714,264.28 170.973,264.28 170.973,251.68 
		142.714,251.68 142.714,237.1 173.402,237.1 173.402,224.501 126.694,224.501 	"/>
	<rect x="97.67" y="224.5" style="fill:#FFFFFF;" width="16.02" height="62.997"/>
	<polygon style="fill:#FFFFFF;" points="61.946,224.501 45.927,224.501 45.927,287.499 88.675,287.499 88.675,274.089 
		61.946,274.089 	"/>
	<polygon style="fill:#FFFFFF;" points="199.422,262.209 229.48,262.209 229.48,249.61 199.422,249.61 199.422,237.1 232.721,237.1 
		232.721,224.501 183.402,224.501 183.402,287.499 233.71,287.499 233.71,274.899 199.422,274.899 	"/>
	<rect x="241.72" y="224.5" style="fill:#FFFFFF;" width="14.279" height="12.96"/>
</g>
<g>
</g>
<g>
</g>
<g>
</g>
<g>
</g>
<g>
</g>
<g>
</g>
<g>
</g>
<g>
</g>
<g>
</g>
<g>
</g>
<g>
</g>
<g>
</g>
<g>
</g>
<g>
</g>
<g>
</g>
</svg>
