<svg id="Layer_3" enable-background="new 0 0 64 64" height="512" viewBox="0 0 64 64" width="512" xmlns="http://www.w3.org/2000/svg"><g><g><path d="m54.908 21.202h5.376v2h-5.376z" fill="#4d5d7a" transform="matrix(.894 -.447 .447 .894 -3.849 28.102)"/></g><g><path d="m52.414 16.31h7.396v2h-7.396z" fill="#4d5d7a" transform="matrix(.781 -.625 .625 .781 1.489 38.863)"/></g><g><path d="m49.172 14h5.657v2h-5.657z" fill="#4d5d7a" transform="matrix(.707 -.707 .707 .707 4.624 41.163)"/></g><g><path d="m45.702 10h6.997v2h-6.997z" fill="#4d5d7a" transform="matrix(.515 -.857 .857 .515 14.448 47.524)"/></g><g><path d="m41.986 9.172h4.579v1.999h-4.579z" fill="#4d5d7a" transform="matrix(.317 -.949 .949 .317 20.613 48.952)"/></g><g><path d="m39 4h2v7h-2z" fill="#4d5d7a"/></g><g><path d="m13.507 19.451h2v5.605h-2z" fill="#4d5d7a" transform="matrix(.447 -.894 .894 .447 -11.885 25.277)"/></g><g><path d="m14.972 13.571h2v7.612h-2z" fill="#4d5d7a" transform="matrix(.625 -.781 .781 .625 -7.575 18.994)"/></g><g><path d="m18.669 12.309h2v4.719h-2z" fill="#4d5d7a" transform="matrix(.707 -.707 .707 .707 -4.611 18.204)"/></g><g><path d="m21.8 7.502h2v6.997h-2z" fill="#4d5d7a" transform="matrix(.858 -.515 .515 .858 -2.41 13.297)"/></g><g><path d="m26.695 7.887h1.999v4.391h-1.999z" fill="#4d5d7a" transform="matrix(.949 -.316 .316 .949 -1.767 9.276)"/></g><g><path d="m31 4h2v7h-2z" fill="#4d5d7a"/></g><g><path d="m35 7h2v4h-2z" fill="#4d5d7a"/></g><g><path d="m56.596 39.11h2v5.376h-2z" fill="#4d5d7a" transform="matrix(.447 -.894 .894 .447 -5.547 74.62)"/></g><g><path d="m55.112 42.992h2v7.396h-2z" fill="#4d5d7a" transform="matrix(.625 -.781 .781 .625 -15.399 61.341)"/></g><g><path d="m51.213 46.686h2v5.055h-2z" fill="#4d5d7a" transform="matrix(.707 -.707 .707 .707 -19.506 51.334)"/></g><g><path d="m48.12 49.211h2v7.31h-2z" fill="#4d5d7a" transform="matrix(.858 -.515 .515 .858 -20.199 32.805)"/></g><g><path d="m43.25 51.378h1.999v4.743h-1.999z" fill="#4d5d7a" transform="matrix(.949 -.316 .316 .949 -14.727 16.751)"/></g><g><path d="m39 52.866h2v7.134h-2z" fill="#4d5d7a"/></g><g><path d="m11.716 40.798h5.376v2h-5.376z" fill="#4d5d7a" transform="matrix(.894 -.447 .447 .894 -17.172 10.855)"/></g><g><path d="m12.123 45.5h8.004v2h-8.004z" fill="#4d5d7a" transform="matrix(.781 -.625 .625 .781 -25.523 20.276)"/></g><g><path d="m17.172 48h5.657v2h-5.657z" fill="#4d5d7a" transform="matrix(.707 -.707 .707 .707 -28.79 28.494)"/></g><g><path d="m19.226 51.866h7.31v2h-7.31z" fill="#4d5d7a" transform="matrix(.515 -.857 .857 .515 -34.222 45.277)"/></g><g><path d="m25.378 52.75h4.743v1.999h-4.743z" fill="#4d5d7a" transform="matrix(.317 -.949 .949 .317 -32.02 63.06)"/></g><g><path d="m31 53h2v7h-2z" fill="#4d5d7a"/></g><g><path d="m35 53h2v4h-2z" fill="#4d5d7a"/></g><path d="m36 10c-10.419 0-19.14 7.245-21.416 16.971-1.672-.144-3.167-1.135-3.926-2.654l-.016-.031c-1.755-3.51-3.934-6.792-6.488-9.772l-2.154-2.514v5l.698 3.143c.866 3.893 1.302 7.869 1.302 11.857s-.436 7.964-1.302 11.857l-.698 3.143v5l2.154-2.513c2.554-2.98 4.733-6.262 6.488-9.772l.016-.031c.759-1.519 2.254-2.51 3.926-2.654 2.276 9.725 10.997 16.97 21.416 16.97 12.15 0 22-9.85 22-22s-9.85-22-22-22z" fill="#2b74ca"/><path d="m14.584 26.971c-1.672-.144-3.167-1.135-3.926-2.654l-.016-.031c-1.755-3.51-3.934-6.792-6.488-9.772l-2.154-2.514v5l.698 3.143c.866 3.893 1.302 7.869 1.302 11.857 0 .323-.021.644-.026.966 3.781 1.301 8.031 2.034 12.526 2.034 15.74 0 28.5-8.954 28.5-20 0-1.105-.133-2.188-.379-3.245-2.648-1.129-5.561-1.755-8.621-1.755-10.419 0-19.14 7.245-21.416 16.971z" fill="#3d98f7"/><g><path d="m57.63 36h-4.13c-5.581 0-11.076 1.374-16 4s-10.419 4-16 4h-3.924c3.924 6.017 10.704 10 18.424 10 10.784 0 19.749-7.761 21.63-18z" fill="#c7e2fc"/></g><g fill="#a8b0bc"><path d="m39.872 38.864.128.136.172.172c1.811 1.811 2.828 4.267 2.828 6.828l1.071-1.071c1.875-1.875 2.929-4.419 2.929-7.071v-1.223c-2.448.477-4.836 1.226-7.128 2.229z"/><circle cx="22" cy="38" r="2"/><path d="m54 32h6c1.105 0 2-.895 2-2 0-1.105-.895-2-2-2h-6"/></g><path d="m54 36h6c1.105 0 2-.895 2-2 0-1.105-.895-2-2-2h-6" fill="#c1c8d1"/><circle cx="45" cy="23" fill="#fff" r="5"/><circle cx="47" cy="21" fill="#4d5d7a" r="2"/><g><path d="m17 31h2v2h-2z" fill="#4d5d7a"/></g><g><path d="m17 27h2v2h-2z" fill="#4d5d7a"/></g><g><path d="m21 27h2v2h-2z" fill="#4d5d7a"/></g><g><path d="m21 23h2v2h-2z" fill="#4d5d7a"/></g><g><path d="m21 19h2v2h-2z" fill="#4d5d7a"/></g><g><path d="m25 19h2v2h-2z" fill="#4d5d7a"/></g><g><path d="m25 23h2v2h-2z" fill="#4d5d7a"/></g><g><path d="m25 15h2v2h-2z" fill="#4d5d7a"/></g><g><path d="m29 15h2v2h-2z" fill="#4d5d7a"/></g><g><path d="m33 13h2v2h-2z" fill="#4d5d7a"/></g><g><path d="m29 19h2v2h-2z" fill="#4d5d7a"/></g></g></svg>