<svg height="512pt" viewBox="0 0 512 512" width="512pt" xmlns="http://www.w3.org/2000/svg"><path d="m512 256c0 141.386719-114.613281 256-256 256s-256-114.613281-256-256 114.613281-256 256-256 256 114.613281 256 256zm0 0" fill="#5dc1d8"/><path d="m436.472656 256c0 99.671875-80.800781 180.472656-180.472656 180.472656s-180.472656-80.800781-180.472656-180.472656 80.800781-180.472656 180.472656-180.472656 180.472656 80.800781 180.472656 180.472656zm0 0" fill="#91e0e8"/><path d="m256 254c-96.648438 0-175 78.351562-175 175 0 4.839844.207031 9.632812.589844 14.371094 45.714844 42.574218 107.015625 68.628906 174.410156 68.628906s128.695312-26.054688 174.410156-68.628906c.382813-4.738282.589844-9.53125.589844-14.371094 0-96.648438-78.351562-175-175-175zm0 0" fill="#b25414"/><path d="m256 254c-48.382812 0-92.179688 19.636719-123.855469 51.371094 30.730469 33.554687 74.875 54.628906 123.855469 54.628906s93.125-21.074219 123.855469-54.628906c-31.675781-31.734375-75.472657-51.371094-123.855469-51.371094zm0 0" fill="#9e480e"/><path d="m256 282.476562c-49.953125 0-90.445312 71.972657-90.445312 160.761719 0 19.03125 1.863281 37.289063 5.28125 54.234375 26.644531 9.398438 55.304687 14.527344 85.164062 14.527344s58.519531-5.128906 85.164062-14.527344c3.417969-16.945312 5.28125-35.203125 5.28125-54.234375 0-88.789062-40.492187-160.761719-90.445312-160.761719zm0 0" fill="#db722c"/><path d="m256 360c25.445312 0 49.585938-5.699219 71.21875-15.867188-16.558594-37.539062-42.304688-61.65625-71.21875-61.65625s-54.660156 24.117188-71.21875 61.65625c21.632812 10.167969 45.773438 15.867188 71.21875 15.867188zm0 0" fill="#c6621e"/><path d="m398.972656 192.027344c0 78.960937-64.011718 142.972656-142.972656 142.972656s-142.972656-64.011719-142.972656-142.972656c0-78.960938 64.011718-142.972656 142.972656-142.972656s142.972656 64.011718 142.972656 142.972656zm0 0" fill="#b25414"/><path d="m314.628906 128.285156h-117.257812c-32.378906 0-58.625 26.25-58.625 58.628906 0 32.378907 26.246094 58.625 58.625 58.625h117.253906c32.378906 0 58.628906-26.246093 58.628906-58.625 0-32.378906-26.25-58.628906-58.625-58.628906zm0 0" fill="#fff"/><path d="m168.746094 186.914062c0-32.378906 26.25-58.625 58.628906-58.625h-30c-32.378906 0-58.628906 26.246094-58.628906 58.625 0 32.378907 26.25 58.625 58.628906 58.625h30c-32.378906 0-58.628906-26.246093-58.628906-58.625zm0 0" fill="#d9eafc"/><path d="m429.4375 6.40625c-27.738281 13.566406-96.207031 42.648438-173.4375 42.648438s-145.699219-29.082032-173.4375-42.648438c-5.597656-2.738281-11.933594 2.0625-10.800781 8.191406 6.488281 35.074219 28.972656 119.457032 95.070312 119.457032 83.4375 0 69.273438 87.179687 89.167969 87.179687s5.730469-87.179687 89.167969-87.179687c66.097656 0 88.578125-84.382813 95.070312-119.457032 1.132813-6.128906-5.203125-10.929687-10.800781-8.191406zm0 0" fill="#db722c"/><path d="m432.695312 5.625c-11.863281 38.933594-36.90625 88.429688-87.527343 88.429688-83.4375 0-69.273438 87.179687-89.167969 87.179687s-5.730469-87.179687-89.167969-87.179687c-50.621093 0-75.660156-49.496094-87.527343-88.429688-4.503907-.050781-8.457032 4.027344-7.542969 8.972656 6.488281 35.074219 28.972656 119.457032 95.070312 119.457032 83.4375 0 69.273438 87.179687 89.167969 87.179687s5.730469-87.179687 89.167969-87.179687c66.097656 0 88.578125-84.382813 95.070312-119.457032.914063-4.945312-3.039062-9.023437-7.542969-8.972656zm0 0" fill="#c6621e"/><path d="m256 176.371094c-14.09375 0-26.570312 5.0625-35.757812 10.34375-9.789063 5.632812-13.242188 18.109375-7.800782 28.007812 10.398438 18.90625 28.640625 47.609375 43.558594 47.609375 14.914062 0 33.15625-28.703125 43.554688-47.609375 5.441406-9.898437 1.992187-22.375-7.800782-28.007812-9.183594-5.28125-21.660156-10.34375-35.753906-10.34375zm0 0" fill="#ffd00d"/><path d="m242.441406 214.722656c-5.441406-9.898437-1.988281-22.375 7.800782-28.003906 5.761718-3.316406 12.820312-6.539062 20.757812-8.484375-4.71875-1.15625-9.746094-1.859375-15-1.859375-14.09375 0-26.570312 5.0625-35.757812 10.34375-9.789063 5.632812-13.242188 18.105469-7.800782 28.003906 10.398438 18.910156 28.640625 47.613282 43.558594 47.613282 4.78125 0 9.902344-2.957032 15-7.589844-10.804688-9.816406-21.492188-27.175782-28.558594-40.023438zm0 0" fill="#ffaf10"/><g fill="#c6621e"><path d="m272.375 377.21875c2.085938 0 3.644531 1.910156 3.234375 3.953125-1.835937 9.152344-9.917969 16.046875-19.609375 16.046875s-17.773438-6.894531-19.609375-16.046875c-.410156-2.042969 1.148437-3.953125 3.234375-3.953125zm0 0"/><path d="m272.375 447.21875c2.085938 0 3.644531 1.910156 3.234375 3.953125-1.835937 9.152344-9.917969 16.046875-19.609375 16.046875s-17.773438-6.894531-19.609375-16.046875c-.410156-2.042969 1.148437-3.953125 3.234375-3.953125zm0 0"/><path d="m220.832031 412.21875c2.082031 0 3.640625 1.910156 3.234375 3.953125-1.835937 9.152344-9.917968 16.046875-19.609375 16.046875-9.691406 0-17.773437-6.894531-19.609375-16.046875-.410156-2.042969 1.148438-3.953125 3.234375-3.953125zm0 0"/><path d="m323.921875 412.21875c2.082031 0 3.640625 1.910156 3.230469 3.953125-1.835938 9.152344-9.914063 16.046875-19.605469 16.046875-9.695313 0-17.773437-6.894531-19.609375-16.046875-.410156-2.042969 1.148438-3.953125 3.234375-3.953125zm0 0"/></g></svg>